<svg width="176" height="130" viewBox="0 0 176 130" fill="none" xmlns="http://www.w3.org/2000/svg">
<path d="M7.22141 61.3307C5.2471 61.3307 3.61125 60.795 2.31384 59.7234C1.01644 58.6519 0.254924 57.2984 0.0292892 55.6629C-0.139937 54.0274 0.42415 52.3638 1.72155 50.6719L17.0054 30.4902L2.22923 10.9126C0.93183 9.16437 0.367742 7.47248 0.536968 5.837C0.762603 4.20151 1.52412 2.848 2.82152 1.77648C4.11893 0.704952 5.75478 0.169189 7.72909 0.169189C9.36494 0.169189 10.8034 0.563962 12.0444 1.35351C13.2854 2.14305 14.5263 3.41196 15.7673 5.16024L25.8448 19.1573L35.9899 5.16024C37.2309 3.35557 38.4719 2.08666 39.7129 1.35351C40.9539 0.563962 42.3923 0.169189 44.0281 0.169189C46.0589 0.169189 47.7229 0.704952 49.0203 1.77648C50.3177 2.79161 51.051 4.11692 51.2203 5.7524C51.4459 7.38789 50.8818 9.10797 49.528 10.9126L34.6737 30.4987L49.9511 50.6719C51.3049 52.3638 51.869 54.0274 51.6433 55.6629C51.4741 57.2984 50.7408 58.6519 49.4434 59.7234C48.146 60.795 46.4819 61.3307 44.4512 61.3307C42.8718 61.3307 41.4615 60.9642 40.2206 60.231C38.9796 59.4415 37.7104 58.1444 36.413 56.3397L25.8443 41.7253L15.3443 56.3397C14.0469 58.1444 12.7777 59.4415 11.5367 60.231C10.2957 60.9642 8.85726 61.3307 7.22141 61.3307Z" fill="white"/>
<path d="M87.0916 61.4999C81.0559 61.4999 75.7535 60.231 71.1844 57.6932C66.6152 55.099 63.0615 51.4896 60.5231 46.8651C58.0411 42.2407 56.8001 36.8548 56.8001 30.7077C56.8001 26.0832 57.5052 21.8817 58.9154 18.1031C60.3821 14.3246 62.441 11.0818 65.0922 8.37482C67.7998 5.66781 71.0151 3.60935 74.7381 2.19944C78.4611 0.733148 82.5789 0 87.0916 0C93.1274 0 98.4016 1.26891 102.914 3.80674C107.483 6.34456 111.037 9.92571 113.576 14.5502C116.114 19.1183 117.383 24.5041 117.383 30.7077C117.383 35.3321 116.65 39.5336 115.183 43.3122C113.773 47.0907 111.714 50.3617 109.006 53.1251C106.355 55.8321 103.168 57.9188 99.4452 59.3851C95.7222 60.795 91.6043 61.4999 87.0916 61.4999ZM87.0916 48.4724C90.0813 48.4724 92.6197 47.7675 94.7068 46.3576C96.7939 44.9477 98.4016 42.9174 99.5298 40.2668C100.658 37.6162 101.222 34.4298 101.222 30.7077C101.222 25.1245 99.981 20.782 97.4991 17.6802C95.0171 14.5784 91.5479 13.0275 87.0916 13.0275C84.1584 13.0275 81.62 13.7324 79.4764 15.1423C77.3893 16.4959 75.7817 18.4979 74.6535 21.1485C73.5253 23.7428 72.9612 26.9291 72.9612 30.7077C72.9612 36.2909 74.2022 40.6616 76.6842 43.8197C79.1662 46.9215 82.6353 48.4724 87.0916 48.4724Z" fill="#59DFFF"/>
<path d="M89.0249 130C82.9892 130 77.6868 128.731 73.1176 126.193C68.5485 123.599 64.9948 119.99 62.4564 115.365C59.9744 110.741 58.7334 105.355 58.7334 99.2077C58.7334 94.5832 59.4385 90.3817 60.8487 86.6032C62.3154 82.8247 64.3743 79.5819 67.0255 76.8749C69.7331 74.1679 72.9484 72.1094 76.6714 70.6995C80.3944 69.2332 84.5122 68.5001 89.0249 68.5001C95.0607 68.5001 100.335 69.769 104.848 72.3068C109.417 74.8446 112.97 78.4258 115.509 83.0502C118.047 87.6183 119.316 93.0042 119.316 99.2077C119.316 103.832 118.583 108.034 117.117 111.812C115.706 115.591 113.647 118.862 110.94 121.625C108.289 124.332 105.101 126.419 101.378 127.885C97.6555 129.295 93.5376 130 89.0249 130ZM89.0249 116.972C92.0146 116.972 94.553 116.268 96.6401 114.858C98.7272 113.448 100.335 111.417 101.463 108.767C102.591 106.116 103.155 102.93 103.155 99.2077C103.155 93.6245 101.914 89.282 99.4323 86.1802C96.9504 83.0784 93.4812 81.5275 89.0249 81.5275C86.0917 81.5275 83.5533 82.2325 81.4097 83.6424C79.3226 84.9959 77.715 86.998 76.5868 89.6486C75.4586 92.2428 74.8945 95.4292 74.8945 99.2077C74.8945 104.791 76.1355 109.162 78.6175 112.32C81.0995 115.422 84.5686 116.972 89.0249 116.972Z" fill="white"/>
<path d="M131.53 129.831C129.555 129.831 127.92 129.295 126.622 128.224C125.325 127.152 124.563 125.798 124.338 124.163C124.168 122.528 124.732 120.864 126.03 119.172L141.314 98.9903L126.538 79.4127C125.24 77.6644 124.676 75.9725 124.845 74.3371C125.071 72.7016 125.832 71.3481 127.13 70.2765C128.427 69.205 130.063 68.6693 132.037 68.6693C133.673 68.6693 135.112 69.064 136.353 69.8536C137.594 70.6431 138.835 71.912 140.076 73.6603L150.153 87.6574L160.298 73.6603C161.539 71.8556 162.78 70.5867 164.021 69.8536C165.262 69.064 166.701 68.6693 168.336 68.6693C170.367 68.6693 172.031 69.205 173.329 70.2765C174.626 71.2917 175.359 72.617 175.529 74.2525C175.754 75.8879 175.19 77.608 173.836 79.4127L158.982 98.9988L174.259 119.172C175.613 120.864 176.177 122.528 175.952 124.163C175.782 125.798 175.049 127.152 173.752 128.224C172.454 129.295 170.79 129.831 168.76 129.831C167.18 129.831 165.77 129.464 164.529 128.731C163.288 127.942 162.019 126.644 160.721 124.84L150.153 110.225L139.653 124.84C138.355 126.644 137.086 127.942 135.845 128.731C134.604 129.464 133.166 129.831 131.53 129.831Z" fill="#59DFFF"/>
</svg>
